# xmcd CD database file
#
# Track frame offsets:
#	150
#	23343
#	43410
#	71688
#	99442
#	116477
#	145472
#	167858
#	184748
#	211399
#
# Disc length: 3101 seconds
#
# Revision: 0
# Processed by: cddbd v1.5.1PL2 Copyright (c) Steve Scherf et al.
# Submitted via: CDex 1.51
#
DISCID=8e0c1b0a
DTITLE=Sandunga Latina - Salsa y ritmo caliente
DYEAR=2001
DGENRE=Salsa
TTITLE0=Vivir sin ti
TTITLE1=Mi tierra
TTITLE2=Lo que siento es le lo lay
TTITLE3=Estate
TTITLE4=Mambo inn
TTITLE5=Song for Chano
TTITLE6=Pare cochero
TTITLE7=De cuba
TTITLE8=Mambo influenciado
TTITLE9=Estate (Radio edit)
EXTD=YEAR: 2001
EXTT0=
EXTT1=
EXTT2=
EXTT3=
EXTT4=
EXTT5=
EXTT6=
EXTT7=
EXTT8=
EXTT9=
PLAYORDER=
